<?xml version="1.0" standalone="no"?>
<!DOCTYPE svg PUBLIC "-//W3C//DTD SVG 20010904//EN"
 "http://www.w3.org/TR/2001/REC-SVG-20010904/DTD/svg10.dtd">
<svg version="1.0" xmlns="http://www.w3.org/2000/svg"
 width="673.000000pt" height="673.000000pt" viewBox="0 0 673.000000 673.000000"
 preserveAspectRatio="xMidYMid meet">
<metadata>
Created by potrace 1.11, written by Peter Selinger 2001-2013
</metadata>
<g transform="translate(0.000000,673.000000) scale(0.100000,-0.100000)"
fill="#000000" stroke="none">
<path d="M3994 6296 c-154 -35 -277 -110 -412 -248 -97 -99 -153 -172 -193
-250 -16 -32 -33 -58 -37 -58 -96 -3 -288 -46 -404 -91 -45 -18 -170 -77 -278
-132 -178 -91 -200 -100 -255 -101 -72 -2 -158 -40 -251 -108 -80 -60 -119
-120 -139 -217 -8 -42 -26 -125 -40 -186 -20 -91 -64 -350 -102 -599 l-8 -50
-255 -52 -255 -53 -579 205 c-318 112 -580 203 -582 201 -2 -2 31 -57 74 -123
43 -65 113 -174 155 -240 l78 -122 -37 -323 -38 -323 -156 -245 c-85 -135
-165 -262 -178 -282 l-22 -36 258 -146 c177 -101 364 -195 597 -303 187 -86
341 -158 343 -159 2 -1 -92 -116 -207 -254 -195 -233 -209 -252 -188 -260 12
-4 125 -43 251 -87 l228 -79 120 -155 c66 -85 123 -156 128 -158 5 -2 89 22
186 53 140 45 179 54 185 43 54 -95 264 -336 397 -454 289 -258 546 -411 798
-475 109 -28 129 -30 244 -26 148 5 250 32 405 106 183 88 336 193 545 376
138 122 241 236 378 419 l97 129 149 -156 149 -156 306 297 306 298 415 313
c228 173 420 319 427 325 9 8 -3 157 -52 656 -49 486 -65 684 -65 803 0 148
-1 157 -19 157 -11 0 -322 -47 -692 -105 -369 -58 -674 -103 -678 -99 -3 3
-10 119 -14 257 -4 139 -10 257 -11 262 -2 6 -46 21 -99 33 l-94 23 -7 63
c-10 97 -64 409 -92 531 -14 61 -32 140 -41 177 -18 82 -61 142 -144 203 -91
67 -164 98 -234 100 -56 1 -77 9 -250 97 -105 53 -232 112 -283 133 -99 39
-268 85 -314 85 -16 0 -28 3 -28 8 1 48 195 269 306 348 152 109 332 155 609
157 105 0 148 -4 223 -23 81 -20 117 -22 100 -4 -3 3 -77 23 -164 45 -148 38
-171 41 -329 45 -124 3 -187 0 -231 -10z m-680 -777 c3 -17 6 -132 6 -255 0
-213 -1 -224 -20 -234 -11 -6 -29 -28 -39 -48 -34 -66 -44 -155 -42 -387 1
-260 9 -298 76 -373 l45 -50 1 -218 c1 -121 5 -286 9 -369 6 -148 7 -149 10
-50 1 55 6 150 10 210 l7 110 3 -130 c3 -117 4 -123 10 -65 4 36 8 163 9 283
l1 217 34 0 c26 0 40 7 59 30 45 52 52 117 52 450 0 297 -1 306 -23 347 -12
24 -36 50 -52 58 l-30 16 1 167 c1 92 4 201 8 242 l6 75 59 -3 c32 -1 102 -17
155 -34 102 -34 561 -258 592 -289 11 -11 19 -15 19 -10 0 9 8 12 63 27 12 4
17 -1 18 -18 1 -17 3 -18 6 -5 6 24 12 22 79 -22 89 -58 105 -79 125 -173 108
-492 152 -828 148 -1148 l-2 -205 31 -100 c109 -342 190 -1036 163 -1383 -12
-148 -41 -284 -85 -392 -87 -212 -302 -511 -511 -708 -247 -232 -487 -391
-712 -469 -70 -24 -92 -27 -208 -27 -115 0 -140 3 -215 28 -111 37 -293 128
-405 204 -411 277 -797 770 -889 1137 -58 229 -41 743 39 1211 41 237 111 505
127 482 5 -8 5 18 1 62 -11 107 -8 386 6 515 18 171 69 483 107 665 19 91 38
176 40 190 8 34 74 95 143 129 48 24 64 28 93 22 20 -5 40 -11 46 -15 6 -3 12
-2 14 2 4 12 328 179 458 237 107 48 259 94 316 95 27 0 32 -4 38 -31z m84
-189 c0 -85 -3 -180 -7 -210 l-7 -55 -8 38 c-12 54 -13 376 -2 412 l9 30 7
-30 c4 -16 8 -100 8 -185z"/>
<path d="M2402 5210 c0 -14 2 -19 5 -12 2 6 2 18 0 25 -3 6 -5 1 -5 -13z"/>
<path d="M2499 5176 c-3 -4 0 -32 7 -64 20 -85 60 -350 89 -587 14 -115 30
-223 35 -240 9 -28 10 -27 5 10 -2 22 -14 135 -26 250 -30 302 -91 650 -110
631z"/>
<path d="M2816 3822 c-19 -31 150 -234 231 -275 18 -10 36 -24 41 -33 6 -11
12 -13 16 -6 3 6 -15 25 -41 43 -98 68 -216 201 -233 264 -4 15 -8 16 -14 7z"/>
<path d="M3295 3169 c-131 -89 -232 -194 -309 -324 l-36 -59 27 -45 c82 -143
170 -235 317 -332 l89 -59 37 21 c61 35 172 121 223 174 52 53 167 218 167
238 0 30 -83 148 -163 233 -97 102 -223 194 -265 194 -15 0 -54 -19 -87 -41z
m161 -219 c22 -19 54 -51 71 -70 l30 -35 -173 -4 c-97 -2 -174 1 -174 6 0 10
101 109 144 141 32 24 28 26 102 -38z m87 -210 l28 0 -36 -44 c-20 -25 -61
-63 -91 -87 -47 -36 -58 -40 -77 -32 -30 14 -131 107 -159 146 l-22 30 165 -6
c90 -4 177 -7 192 -7z"/>
<path d="M2112 3120 c0 -38 -5 -78 -11 -88 -18 -34 -31 -220 -31 -441 0 -205
2 -227 34 -401 55 -294 57 -300 155 -528 132 -308 389 -620 654 -796 104 -69
284 -166 333 -180 12 -4 -46 62 -130 146 -83 84 -165 171 -181 193 -16 22 -62
78 -103 124 -121 137 -193 256 -270 446 -97 239 -101 254 -112 409 -13 173 -4
193 39 94 91 -204 251 -383 476 -531 39 -26 82 -56 97 -67 32 -25 174 -90 247
-115 30 -10 67 -15 86 -12 48 8 229 83 277 114 182 122 190 128 258 182 73 58
196 190 238 254 14 23 48 83 74 132 57 109 62 103 55 -68 -3 -94 -10 -139 -30
-197 -34 -104 -146 -369 -168 -402 -11 -14 -19 -29 -19 -33 0 -4 -26 -44 -57
-88 -68 -97 -275 -328 -431 -480 -60 -59 -100 -105 -88 -101 90 26 327 164
451 262 194 154 418 444 521 673 93 207 120 294 165 524 l44 220 -3 245 c-1
155 -8 282 -17 345 -9 55 -19 123 -23 152 -10 67 -17 72 -37 33 -42 -80 -210
-291 -330 -414 -89 -91 -377 -346 -435 -386 -19 -13 -57 -43 -85 -65 -71 -59
-282 -217 -332 -248 l-43 -27 -40 23 c-41 23 -287 202 -305 221 -5 6 -46 38
-90 71 -143 107 -451 385 -527 476 -29 35 -67 76 -85 92 -18 16 -42 45 -55 65
-12 20 -45 69 -74 107 -28 39 -55 80 -58 92 -4 11 -13 26 -20 32 -10 8 -13 -4
-14 -59z"/>
</g>
</svg>
